# xmcd
#
# Track frame offsets: 
#        150
#        15632
#        26078
#        39051
#        51943
#        60807
#        78064
#        100504
#        116119
#        121413
#        134720
#        140214
#        154741
#        161266
#
# Disc length: 2412 seconds
#
# Revision: 0
# Processed by: cddbd v1.5.2PL0 Copyright (c) Steve Scherf et al.
# Submitted via: ExactAudioCopy v1.0b4
#
DISCID=ac096a0e
DTITLE=Gordon Smith - Long Overdue (LP)
DYEAR=1968
DGENRE=Blues
TTITLE0=Diving Duck Blues
TTITLE1=Highway
TTITLE2=One Dime Blues
TTITLE3=Having A Good Time
TTITLE4=Instrumental No 2
TTITLE5=Walking Blues
TTITLE6=Rolling and Tumbling
TTITLE7=I' ve Been Down So Long
TTITLE8=Instrumental No 4
TTITLE9=Pearlie Blues
TTITLE10=The Woman Down The Hall
TTITLE11=Big Road Blues
TTITLE12=Instrumental No 3
TTITLE13=Worried Life Blues
EXTD=
EXTT0=
EXTT1=
EXTT2=
EXTT3=
EXTT4=
EXTT5=
EXTT6=
EXTT7=
EXTT8=
EXTT9=
EXTT10=
EXTT11=
EXTT12=
EXTT13=
PLAYORDER=
